<svg width="800" height="800" viewBox="0 0 800 800" fill="none" xmlns="http://www.w3.org/2000/svg">
<path d="M739.121 558.454C735.355 549.421 731.59 539.636 727.825 531.355C721.8 517.806 715.776 505.009 710.504 492.965L709.751 492.212C657.789 379.299 602.062 264.881 543.323 151.968L541.064 147.451C535.039 136.16 529.015 124.116 522.99 112.072C515.459 98.5225 507.929 84.2202 495.879 70.6707C471.781 40.5606 437.14 24 400.24 24C362.586 24 328.698 40.5606 303.847 69.1652C292.551 82.7147 284.267 97.017 276.736 110.567C270.712 122.611 264.687 134.655 258.663 145.946L256.404 150.462C198.417 263.375 141.937 377.794 89.9754 490.707L89.2223 492.212C83.9508 504.256 77.9263 517.053 71.9018 530.603C68.1364 538.883 64.3711 547.916 60.6057 557.702C50.8158 585.554 47.8035 611.9 51.5689 638.999C59.8526 695.455 97.5061 742.879 149.468 763.956C169.048 772.236 189.38 776 210.466 776C216.491 776 224.022 775.247 230.046 774.494C254.897 771.483 280.502 763.203 305.353 748.901C336.229 731.588 365.599 706.747 398.734 670.615C431.869 706.747 461.991 731.588 492.114 748.901C516.965 763.203 542.57 771.483 567.421 774.494C573.446 775.247 580.976 776 587.001 776C608.087 776 629.173 772.236 647.999 763.956C700.714 742.879 737.615 694.703 745.898 638.999C751.923 612.653 748.911 586.306 739.121 558.454ZM399.487 597.598C358.821 546.41 332.464 498.234 323.427 457.586C319.661 440.272 318.908 425.217 321.168 411.668C322.674 399.624 327.192 389.085 333.217 380.052C347.525 359.728 371.623 346.931 399.487 346.931C427.35 346.931 452.202 358.975 465.757 380.052C471.781 389.085 476.3 399.624 477.806 411.668C480.065 425.217 479.312 441.025 475.547 457.586C466.51 497.481 440.152 545.658 399.487 597.598ZM699.961 632.977C694.69 672.12 668.332 705.994 631.432 721.049C613.358 728.577 593.778 730.835 574.199 728.577C555.372 726.318 536.545 720.296 516.965 709.005C489.855 693.95 462.744 670.615 431.116 635.988C480.818 575.015 510.941 519.311 522.237 469.63C527.508 446.294 528.261 425.217 526.002 405.646C522.99 386.827 516.212 369.514 505.669 354.458C482.324 320.585 443.165 301.013 399.487 301.013C355.809 301.013 316.649 321.337 293.304 354.458C282.761 369.514 275.983 386.827 272.971 405.646C269.959 425.217 270.712 447.047 276.736 469.63C288.032 519.311 318.908 575.768 367.858 636.741C336.982 671.367 309.118 694.703 282.008 709.758C262.428 721.049 243.601 727.071 224.775 729.329C204.442 731.588 184.862 728.577 167.541 721.802C130.641 706.747 104.284 672.873 99.0122 633.73C96.753 614.911 98.2592 596.092 105.79 575.015C108.049 567.487 111.814 559.96 115.58 550.927C120.851 538.883 126.876 526.086 132.9 513.289L133.653 511.784C185.615 399.624 241.342 285.205 299.329 173.798L301.588 169.281C307.612 157.99 313.637 145.946 319.661 134.655C325.686 122.611 332.464 111.319 340.747 101.534C356.562 83.4675 377.648 73.6817 400.993 73.6817C424.338 73.6817 445.424 83.4675 461.238 101.534C469.522 111.319 476.3 122.611 482.324 134.655C488.349 145.946 494.373 157.99 500.398 169.281L502.657 173.798C559.89 285.958 615.617 400.376 667.579 512.537V513.289C673.604 525.333 678.875 538.883 684.9 550.927C688.665 559.96 692.43 567.487 694.69 575.015C700.714 594.587 702.973 613.405 699.961 632.977Z" fill="#FF5A5F"/>
</svg>
